<mxfile host="app.diagrams.net" modified="2022-03-20T16:05:47.274Z" agent="5.0 (Macintosh)" etag="B4ByabEsTBsK-PIGzHBe" version="17.1.3" type="github">
  <diagram id="H7ZuHuOcbi3xbuQLkj9U" name="Page-1">
    <mxGraphModel dx="946" dy="515" grid="1" gridSize="10" guides="1" tooltips="1" connect="1" arrows="1" fold="1" page="1" pageScale="1" pageWidth="850" pageHeight="1100" math="0" shadow="0">
      <root>
        <mxCell id="0" />
        <mxCell id="1" parent="0" />
        <mxCell id="gwWg8NjLFfd7atnWZ2hH-17" value="" style="edgeStyle=orthogonalEdgeStyle;rounded=0;orthogonalLoop=1;jettySize=auto;html=1;" edge="1" parent="1" source="gwWg8NjLFfd7atnWZ2hH-1" target="gwWg8NjLFfd7atnWZ2hH-16">
          <mxGeometry relative="1" as="geometry" />
        </mxCell>
        <mxCell id="gwWg8NjLFfd7atnWZ2hH-1" value="&lt;div&gt;Production&lt;/div&gt;&lt;div&gt;DB&lt;br&gt;&lt;/div&gt;" style="shape=datastore;whiteSpace=wrap;html=1;fillColor=#CCCCCC;" vertex="1" parent="1">
          <mxGeometry x="280" y="70" width="100" height="90" as="geometry" />
        </mxCell>
        <mxCell id="gwWg8NjLFfd7atnWZ2hH-2" value="" style="verticalLabelPosition=bottom;html=1;verticalAlign=top;align=center;strokeColor=none;fillColor=#999999;shape=mxgraph.azure.script_file;pointerEvents=1;" vertex="1" parent="1">
          <mxGeometry x="122" y="75" width="70" height="80" as="geometry" />
        </mxCell>
        <mxCell id="gwWg8NjLFfd7atnWZ2hH-3" value="" style="endArrow=classic;html=1;rounded=0;exitX=1;exitY=0.5;exitDx=0;exitDy=0;exitPerimeter=0;entryX=0;entryY=0.5;entryDx=0;entryDy=0;" edge="1" parent="1" source="gwWg8NjLFfd7atnWZ2hH-2" target="gwWg8NjLFfd7atnWZ2hH-1">
          <mxGeometry width="50" height="50" relative="1" as="geometry">
            <mxPoint x="180" y="260" as="sourcePoint" />
            <mxPoint x="230" y="210" as="targetPoint" />
          </mxGeometry>
        </mxCell>
        <mxCell id="gwWg8NjLFfd7atnWZ2hH-4" value="engineer" style="shape=umlActor;verticalLabelPosition=bottom;verticalAlign=top;html=1;outlineConnect=0;fillColor=#999999;" vertex="1" parent="1">
          <mxGeometry x="295" y="230" width="30" height="60" as="geometry" />
        </mxCell>
        <mxCell id="gwWg8NjLFfd7atnWZ2hH-13" value="" style="edgeStyle=orthogonalEdgeStyle;rounded=0;orthogonalLoop=1;jettySize=auto;html=1;" edge="1" parent="1" source="gwWg8NjLFfd7atnWZ2hH-6" target="gwWg8NjLFfd7atnWZ2hH-2">
          <mxGeometry relative="1" as="geometry" />
        </mxCell>
        <mxCell id="gwWg8NjLFfd7atnWZ2hH-6" value="" style="shape=image;html=1;verticalAlign=top;verticalLabelPosition=bottom;labelBackgroundColor=#ffffff;imageAspect=0;aspect=fixed;image=https://cdn0.iconfinder.com/data/icons/phosphor-regular-vol-3/256/git-merge-128.png;fillColor=#999999;" vertex="1" parent="1">
          <mxGeometry x="127" y="230" width="60" height="60" as="geometry" />
        </mxCell>
        <mxCell id="gwWg8NjLFfd7atnWZ2hH-7" value="" style="endArrow=classic;html=1;rounded=0;entryX=1;entryY=0.5;entryDx=0;entryDy=0;" edge="1" parent="1" source="gwWg8NjLFfd7atnWZ2hH-4" target="gwWg8NjLFfd7atnWZ2hH-6">
          <mxGeometry width="50" height="50" relative="1" as="geometry">
            <mxPoint x="190" y="380" as="sourcePoint" />
            <mxPoint x="240" y="330" as="targetPoint" />
          </mxGeometry>
        </mxCell>
        <mxCell id="gwWg8NjLFfd7atnWZ2hH-8" value="&lt;div&gt;push&lt;/div&gt;&lt;div&gt;to&lt;/div&gt;&lt;div&gt;source control&lt;br&gt;&lt;/div&gt;" style="edgeLabel;html=1;align=center;verticalAlign=middle;resizable=0;points=[];" vertex="1" connectable="0" parent="gwWg8NjLFfd7atnWZ2hH-7">
          <mxGeometry x="-0.037" y="2" relative="1" as="geometry">
            <mxPoint x="-2" y="-31" as="offset" />
          </mxGeometry>
        </mxCell>
        <mxCell id="gwWg8NjLFfd7atnWZ2hH-14" value="&lt;div&gt;update&lt;/div&gt;&lt;div&gt;script&lt;br&gt;&lt;/div&gt;" style="text;html=1;strokeColor=none;fillColor=none;align=center;verticalAlign=middle;whiteSpace=wrap;rounded=0;" vertex="1" parent="1">
          <mxGeometry x="122" y="40" width="60" height="30" as="geometry" />
        </mxCell>
        <mxCell id="gwWg8NjLFfd7atnWZ2hH-15" value="" style="sketch=0;pointerEvents=1;shadow=0;dashed=0;html=1;strokeColor=#23445d;fillColor=#bac8d3;labelPosition=center;verticalLabelPosition=bottom;verticalAlign=top;align=center;outlineConnect=0;shape=mxgraph.veeam2.backup_file;" vertex="1" parent="1">
          <mxGeometry x="465" y="230" width="50" height="60" as="geometry" />
        </mxCell>
        <mxCell id="gwWg8NjLFfd7atnWZ2hH-18" value="" style="edgeStyle=orthogonalEdgeStyle;rounded=0;orthogonalLoop=1;jettySize=auto;html=1;" edge="1" parent="1" source="gwWg8NjLFfd7atnWZ2hH-16" target="gwWg8NjLFfd7atnWZ2hH-15">
          <mxGeometry relative="1" as="geometry" />
        </mxCell>
        <mxCell id="gwWg8NjLFfd7atnWZ2hH-16" value="backup" style="shape=datastore;whiteSpace=wrap;html=1;fillColor=#CCCCCC;" vertex="1" parent="1">
          <mxGeometry x="460" y="85" width="60" height="60" as="geometry" />
        </mxCell>
        <mxCell id="gwWg8NjLFfd7atnWZ2hH-19" value="" style="endArrow=classic;html=1;rounded=0;exitX=1;exitY=0.3333333333333333;exitDx=0;exitDy=0;exitPerimeter=0;entryX=0;entryY=0.5;entryDx=0;entryDy=0;" edge="1" parent="1" source="gwWg8NjLFfd7atnWZ2hH-4" target="gwWg8NjLFfd7atnWZ2hH-21">
          <mxGeometry width="50" height="50" relative="1" as="geometry">
            <mxPoint x="360" y="350" as="sourcePoint" />
            <mxPoint x="410" y="190" as="targetPoint" />
          </mxGeometry>
        </mxCell>
        <mxCell id="gwWg8NjLFfd7atnWZ2hH-20" value="tests" style="edgeLabel;html=1;align=center;verticalAlign=middle;resizable=0;points=[];" vertex="1" connectable="0" parent="gwWg8NjLFfd7atnWZ2hH-19">
          <mxGeometry x="-0.14" y="-2" relative="1" as="geometry">
            <mxPoint x="-9" y="-14" as="offset" />
          </mxGeometry>
        </mxCell>
        <mxCell id="gwWg8NjLFfd7atnWZ2hH-21" value="&lt;div&gt;&lt;br&gt;&lt;/div&gt;&lt;div&gt;&lt;br&gt;&lt;/div&gt;&lt;div&gt;&lt;br&gt;&lt;/div&gt;&lt;div&gt;&lt;br&gt;&lt;/div&gt;&lt;div&gt;&lt;br&gt;&lt;/div&gt;&lt;div&gt;&lt;br&gt;&lt;/div&gt;&lt;div&gt;&lt;br&gt;&lt;/div&gt;&lt;div&gt;&lt;br&gt;&lt;/div&gt;&lt;div&gt;&lt;br&gt;&lt;/div&gt;&lt;div&gt;&lt;br&gt;&lt;/div&gt;&lt;div&gt;&lt;br&gt;&lt;/div&gt;&lt;div&gt;&lt;br&gt;&lt;/div&gt;&lt;div&gt;&lt;br&gt;&lt;/div&gt;&lt;div&gt;&lt;br&gt;&lt;/div&gt;&lt;div&gt;&lt;br&gt;&lt;/div&gt;&lt;div&gt;&lt;br&gt;&lt;/div&gt;&lt;div&gt;backup process&lt;br&gt;&lt;/div&gt;" style="rounded=1;whiteSpace=wrap;html=1;fillColor=none;dashed=1;" vertex="1" parent="1">
          <mxGeometry x="425" y="60" width="125" height="250" as="geometry" />
        </mxCell>
      </root>
    </mxGraphModel>
  </diagram>
</mxfile>
